<svg xmlns="http://www.w3.org/2000/svg" xmlns:xlink="http://www.w3.org/1999/xlink" width="500" zoomAndPan="magnify" viewBox="0 0 375 374.999991" height="500" preserveAspectRatio="xMidYMid meet" version="1.0"><path fill="#00b0ff" d="M 350.484375 364.820312 C 343.65625 371.398438 332.710938 370.148438 324.054688 369.734375 C 310.269531 369.082031 296.507812 368.503906 282.703125 368.328125 C 244.09375 367.84375 205.476562 368.003906 166.867188 368.226562 C 143.519531 368.359375 125.136719 370.589844 101.796875 370.109375 C 91.820312 369.902344 79.8125 372.953125 71.117188 368.964844 C 56.476562 362.246094 57.492188 333.722656 57.605469 321.101562 C 57.886719 290.03125 56.113281 260.589844 56.113281 229.347656 C 56.113281 180.589844 56.117188 131.832031 56.113281 83.066406 C 56.113281 67.375 55.046875 51.6875 55.398438 35.992188 C 55.65625 24.515625 55.011719 7.921875 68.222656 4.910156 C 88.351562 0.328125 109.464844 0.363281 129.71875 1.84375 C 151.078125 3.410156 170.007812 0.785156 191.402344 0.953125 C 215.078125 1.140625 241.203125 2.28125 264.878906 2.273438 C 285.464844 2.269531 299.644531 0.414062 320.1875 1.117188 C 331.261719 1.496094 349.90625 7.519531 354.671875 18.53125 C 356.445312 22.632812 357.90625 38.667969 356.550781 49.570312 C 354.214844 68.355469 353.285156 87.835938 353.851562 106.753906 C 355.074219 147.523438 355.597656 188.386719 354.789062 229.167969 C 354.378906 249.660156 355.652344 270.132812 354.65625 290.617188 C 353.652344 311.261719 357.183594 332.46875 355.480469 352.875 C 355.015625 358.394531 353.195312 362.210938 350.484375 364.820312 Z M 350.484375 364.820312 " fill-opacity="1" fill-rule="nonzero"/><path fill="#ffffff" d="M 340.273438 361.945312 C 333.628906 368.382812 322.988281 367.160156 314.574219 366.757812 C 301.167969 366.117188 287.785156 365.546875 274.363281 365.378906 C 236.820312 364.902344 199.273438 365.058594 161.726562 365.277344 C 139.023438 365.410156 121.152344 367.59375 98.457031 367.117188 C 88.753906 366.914062 77.078125 369.902344 68.621094 366 C 54.386719 359.421875 55.375 331.507812 55.484375 319.15625 C 55.757812 288.75 54.03125 259.9375 54.03125 229.359375 C 54.027344 181.640625 54.03125 133.921875 54.03125 86.195312 C 54.03125 70.835938 52.992188 55.484375 53.335938 40.125 C 53.585938 28.890625 52.960938 12.652344 65.808594 9.707031 C 85.378906 5.222656 105.914062 5.257812 125.601562 6.707031 C 146.375 8.238281 164.78125 5.667969 185.582031 5.835938 C 208.601562 6.015625 234.007812 7.128906 257.027344 7.125 C 277.042969 7.117188 290.832031 5.304688 310.808594 5.992188 C 321.578125 6.363281 339.703125 12.257812 344.339844 23.039062 C 346.0625 27.046875 347.484375 42.746094 346.164062 53.414062 C 343.894531 71.796875 342.988281 90.863281 343.542969 109.375 C 344.730469 149.277344 345.238281 189.269531 344.453125 229.179688 C 344.058594 249.238281 345.292969 269.273438 344.324219 289.320312 C 343.347656 309.523438 346.785156 330.277344 345.125 350.25 C 344.675781 355.65625 342.90625 359.394531 340.273438 361.945312 Z M 340.273438 361.945312 " fill-opacity="1" fill-rule="nonzero"/><path fill="#00b0ff" d="M 326.246094 366.921875 C 319.414062 373.542969 308.472656 372.28125 299.816406 371.871094 C 286.03125 371.210938 272.265625 370.625 258.460938 370.453125 C 219.851562 369.964844 181.238281 370.125 142.628906 370.351562 C 119.277344 370.484375 100.894531 372.730469 77.558594 372.242188 C 67.582031 372.035156 55.570312 375.105469 46.875 371.089844 C 32.238281 364.328125 33.25 335.621094 33.367188 322.914062 C 33.644531 291.644531 31.875 262.015625 31.875 230.566406 C 31.871094 181.492188 31.875 132.417969 31.875 83.335938 C 31.875 67.542969 30.808594 51.75 31.15625 35.953125 C 31.414062 24.402344 30.769531 7.699219 43.984375 4.671875 C 64.109375 0.0585938 85.226562 0.09375 105.476562 1.585938 C 126.839844 3.160156 145.769531 0.519531 167.164062 0.691406 C 190.839844 0.878906 216.960938 2.023438 240.636719 2.015625 C 261.222656 2.011719 275.402344 0.144531 295.949219 0.855469 C 307.023438 1.238281 325.667969 7.296875 330.433594 18.382812 C 332.207031 22.507812 333.667969 38.652344 332.3125 49.625 C 329.972656 68.53125 329.042969 88.136719 329.613281 107.175781 C 330.835938 148.210938 331.359375 189.339844 330.550781 230.386719 C 330.140625 251.015625 331.414062 271.621094 330.417969 292.238281 C 329.414062 313.015625 332.945312 334.359375 331.242188 354.898438 C 330.777344 360.453125 328.957031 364.296875 326.246094 366.921875 Z M 326.246094 366.921875 " fill-opacity="1" fill-rule="nonzero"/><path fill="#ffffff" d="M 61.132812 40.933594 C 68.65625 33.980469 58.433594 23.320312 50.730469 27.9375 C 40.492188 34.070312 53.035156 48.417969 61.132812 40.933594 Z M 61.132812 40.933594 " fill-opacity="1" fill-rule="nonzero"/><path fill="#373737" d="M 35.828125 31.300781 C 38.585938 31.042969 41.34375 30.8125 44.117188 30.652344 C 47.953125 30.433594 53.75 28.875 57.175781 31.777344 C 61.703125 35.613281 56.929688 38.742188 53.875 39.601562 C 50.363281 40.589844 46.402344 40.609375 42.816406 41.078125 C 39.554688 41.503906 16.683594 44.074219 21.40625 33.710938 C 23.640625 28.8125 32.40625 31.625 35.828125 31.300781 Z M 35.828125 31.300781 " fill-opacity="1" fill-rule="nonzero"/><path fill="#ffffff" d="M 61.132812 74.738281 C 68.65625 67.789062 58.433594 57.125 50.730469 61.742188 C 40.492188 67.878906 53.035156 82.222656 61.132812 74.738281 Z M 61.132812 74.738281 " fill-opacity="1" fill-rule="nonzero"/><path fill="#373737" d="M 35.828125 65.109375 C 38.585938 64.847656 41.34375 64.617188 44.117188 64.460938 C 47.953125 64.242188 53.75 62.679688 57.175781 65.582031 C 61.703125 69.417969 56.929688 72.546875 53.875 73.410156 C 50.363281 74.394531 46.402344 74.417969 42.816406 74.886719 C 39.554688 75.308594 16.683594 77.882812 21.40625 67.519531 C 23.640625 62.621094 32.40625 65.429688 35.828125 65.109375 Z M 35.828125 65.109375 " fill-opacity="1" fill-rule="nonzero"/><path fill="#ffffff" d="M 61.132812 108.542969 C 68.65625 101.589844 58.433594 90.929688 50.730469 95.546875 C 40.492188 101.683594 53.035156 116.03125 61.132812 108.542969 Z M 61.132812 108.542969 " fill-opacity="1" fill-rule="nonzero"/><path fill="#373737" d="M 35.828125 98.914062 C 38.585938 98.65625 41.34375 98.425781 44.117188 98.265625 C 47.953125 98.046875 53.75 96.484375 57.175781 99.390625 C 61.703125 103.226562 56.929688 106.351562 53.875 107.214844 C 50.363281 108.203125 46.402344 108.222656 42.816406 108.691406 C 39.554688 109.117188 16.683594 111.6875 21.40625 101.324219 C 23.640625 96.425781 32.40625 99.234375 35.828125 98.914062 Z M 35.828125 98.914062 " fill-opacity="1" fill-rule="nonzero"/><path fill="#ffffff" d="M 61.132812 142.351562 C 68.65625 135.398438 58.433594 124.738281 50.730469 129.355469 C 40.492188 135.488281 53.035156 149.835938 61.132812 142.351562 Z M 61.132812 142.351562 " fill-opacity="1" fill-rule="nonzero"/><path fill="#373737" d="M 35.828125 132.722656 C 38.585938 132.460938 41.34375 132.230469 44.117188 132.074219 C 47.953125 131.855469 53.75 130.292969 57.175781 133.195312 C 61.703125 137.03125 56.929688 140.160156 53.875 141.019531 C 50.363281 142.007812 46.402344 142.027344 42.816406 142.5 C 39.554688 142.921875 16.683594 145.496094 21.40625 135.132812 C 23.640625 130.230469 32.40625 133.042969 35.828125 132.722656 Z M 35.828125 132.722656 " fill-opacity="1" fill-rule="nonzero"/><path fill="#ffffff" d="M 61.132812 176.15625 C 68.65625 169.203125 58.433594 158.542969 50.730469 163.160156 C 40.492188 169.296875 53.035156 183.640625 61.132812 176.15625 Z M 61.132812 176.15625 " fill-opacity="1" fill-rule="nonzero"/><path fill="#373737" d="M 35.828125 166.527344 C 38.585938 166.269531 41.34375 166.035156 44.117188 165.878906 C 47.953125 165.660156 53.75 164.097656 57.175781 167 C 61.703125 170.835938 56.929688 173.964844 53.875 174.824219 C 50.363281 175.8125 46.402344 175.835938 42.816406 176.300781 C 39.554688 176.726562 16.683594 179.296875 21.40625 168.9375 C 23.640625 164.039062 32.40625 166.847656 35.828125 166.527344 Z M 35.828125 166.527344 " fill-opacity="1" fill-rule="nonzero"/><path fill="#ffffff" d="M 61.132812 209.964844 C 68.65625 203.011719 58.433594 192.351562 50.730469 196.96875 C 40.492188 203.101562 53.035156 217.449219 61.132812 209.964844 Z M 61.132812 209.964844 " fill-opacity="1" fill-rule="nonzero"/><path fill="#373737" d="M 35.828125 200.332031 C 38.585938 200.074219 41.34375 199.84375 44.117188 199.683594 C 47.953125 199.464844 53.75 197.902344 57.175781 200.808594 C 61.703125 204.644531 56.929688 207.773438 53.875 208.632812 C 50.363281 209.617188 46.402344 209.640625 42.816406 210.109375 C 39.554688 210.535156 16.683594 213.105469 21.40625 202.742188 C 23.640625 197.84375 32.40625 200.65625 35.828125 200.332031 Z M 35.828125 200.332031 " fill-opacity="1" fill-rule="nonzero"/><path fill="#ffffff" d="M 61.132812 243.769531 C 68.65625 236.816406 58.433594 226.15625 50.730469 230.773438 C 40.492188 236.910156 53.035156 251.253906 61.132812 243.769531 Z M 61.132812 243.769531 " fill-opacity="1" fill-rule="nonzero"/><path fill="#373737" d="M 35.828125 234.140625 C 38.585938 233.878906 41.34375 233.648438 44.117188 233.492188 C 47.953125 233.273438 53.75 231.710938 57.175781 234.613281 C 61.703125 238.449219 56.929688 241.578125 53.875 242.4375 C 50.363281 243.425781 46.402344 243.449219 42.816406 243.914062 C 39.554688 244.339844 16.683594 246.910156 21.40625 236.550781 C 23.640625 231.652344 32.40625 234.460938 35.828125 234.140625 Z M 35.828125 234.140625 " fill-opacity="1" fill-rule="nonzero"/><path fill="#ffffff" d="M 61.132812 277.578125 C 68.65625 270.625 58.433594 259.964844 50.730469 264.582031 C 40.492188 270.714844 53.035156 285.0625 61.132812 277.578125 Z M 61.132812 277.578125 " fill-opacity="1" fill-rule="nonzero"/><path fill="#373737" d="M 35.828125 267.945312 C 38.585938 267.6875 41.34375 267.457031 44.117188 267.296875 C 47.953125 267.078125 53.75 265.515625 57.175781 268.417969 C 61.703125 272.257812 56.929688 275.382812 53.875 276.246094 C 50.363281 277.230469 46.402344 277.253906 42.816406 277.722656 C 39.554688 278.148438 16.683594 280.71875 21.40625 270.355469 C 23.640625 265.457031 32.40625 268.269531 35.828125 267.945312 Z M 35.828125 267.945312 " fill-opacity="1" fill-rule="nonzero"/><path fill="#ffffff" d="M 61.132812 311.382812 C 68.65625 304.429688 58.433594 293.769531 50.730469 298.386719 C 40.492188 304.519531 53.035156 318.867188 61.132812 311.382812 Z M 61.132812 311.382812 " fill-opacity="1" fill-rule="nonzero"/><path fill="#373737" d="M 35.828125 301.753906 C 38.585938 301.492188 41.34375 301.261719 44.117188 301.105469 C 47.953125 300.886719 53.75 299.324219 57.175781 302.226562 C 61.703125 306.0625 56.929688 309.191406 53.875 310.050781 C 50.363281 311.039062 46.402344 311.058594 42.816406 311.527344 C 39.554688 311.953125 16.683594 314.523438 21.40625 304.160156 C 23.640625 299.265625 32.40625 302.074219 35.828125 301.753906 Z M 35.828125 301.753906 " fill-opacity="1" fill-rule="nonzero"/><path fill="#ffffff" d="M 61.132812 345.1875 C 68.65625 338.234375 58.433594 327.574219 50.730469 332.191406 C 40.492188 338.328125 53.035156 352.671875 61.132812 345.1875 Z M 61.132812 345.1875 " fill-opacity="1" fill-rule="nonzero"/><path fill="#373737" d="M 35.828125 335.558594 C 38.585938 335.300781 41.34375 335.066406 44.117188 334.910156 C 47.953125 334.691406 53.75 333.128906 57.175781 336.03125 C 61.703125 339.867188 56.929688 342.996094 53.875 343.855469 C 50.363281 344.84375 46.402344 344.867188 42.816406 345.335938 C 39.554688 345.761719 16.683594 348.332031 21.40625 337.96875 C 23.640625 333.070312 32.40625 335.878906 35.828125 335.558594 Z M 35.828125 335.558594 " fill-opacity="1" fill-rule="nonzero"/></svg>