<svg xmlns="http://www.w3.org/2000/svg" xmlns:xlink="http://www.w3.org/1999/xlink" width="470" zoomAndPan="magnify" viewBox="0 0 352.5 149.999998" height="200" preserveAspectRatio="xMidYMid meet" version="1.0"><defs><g/><clipPath id="id1"><path d="M 11 38.300781 L 71.671875 38.300781 L 71.671875 111.800781 L 11 111.800781 Z M 11 38.300781 " clip-rule="nonzero"/></clipPath><clipPath id="id2"><path d="M 7 38.300781 L 67 38.300781 L 67 111.800781 L 7 111.800781 Z M 7 38.300781 " clip-rule="nonzero"/></clipPath></defs><g clip-path="url(#id1)"><path fill="#00b0ff" d="M 70.117188 109.804688 C 68.769531 111.09375 66.609375 110.851562 64.902344 110.769531 C 62.179688 110.640625 59.464844 110.527344 56.738281 110.492188 C 49.117188 110.398438 41.496094 110.429688 33.878906 110.472656 C 29.269531 110.5 25.640625 110.9375 21.035156 110.84375 C 19.066406 110.800781 16.695312 111.398438 14.980469 110.617188 C 12.089844 109.300781 12.289062 103.710938 12.3125 101.238281 C 12.367188 95.148438 12.019531 89.375 12.019531 83.253906 C 12.019531 73.695312 12.019531 64.140625 12.019531 54.582031 C 12.019531 51.507812 11.808594 48.429688 11.878906 45.355469 C 11.929688 43.105469 11.800781 39.855469 14.410156 39.261719 C 18.382812 38.363281 22.550781 38.371094 26.546875 38.664062 C 30.761719 38.96875 34.496094 38.453125 38.71875 38.488281 C 43.390625 38.523438 48.546875 38.746094 53.222656 38.746094 C 57.285156 38.746094 60.082031 38.382812 64.136719 38.519531 C 66.324219 38.59375 70.003906 39.773438 70.941406 41.933594 C 71.292969 42.738281 71.582031 45.878906 71.3125 48.015625 C 70.851562 51.699219 70.667969 55.515625 70.78125 59.222656 C 71.023438 67.214844 71.125 75.226562 70.964844 83.21875 C 70.886719 87.234375 71.136719 91.246094 70.941406 95.261719 C 70.742188 99.308594 71.4375 103.464844 71.101562 107.464844 C 71.011719 108.546875 70.652344 109.292969 70.117188 109.804688 Z M 70.117188 109.804688 " fill-opacity="1" fill-rule="nonzero"/></g><path fill="#ffffff" d="M 68.101562 109.242188 C 66.789062 110.503906 64.691406 110.265625 63.027344 110.183594 C 60.382812 110.058594 57.742188 109.949219 55.09375 109.914062 C 47.683594 109.820312 40.273438 109.851562 32.863281 109.894531 C 28.382812 109.921875 24.855469 110.347656 20.375 110.257812 C 18.460938 110.214844 16.15625 110.800781 14.488281 110.035156 C 11.679688 108.746094 11.871094 103.277344 11.894531 100.855469 C 11.949219 94.894531 11.609375 89.25 11.609375 83.253906 C 11.609375 73.902344 11.609375 64.550781 11.609375 55.195312 C 11.609375 52.183594 11.402344 49.175781 11.472656 46.164062 C 11.519531 43.964844 11.398438 40.78125 13.933594 40.203125 C 17.796875 39.324219 21.847656 39.332031 25.734375 39.617188 C 29.832031 39.914062 33.464844 39.410156 37.570312 39.445312 C 42.113281 39.480469 47.128906 39.699219 51.671875 39.695312 C 55.621094 39.695312 58.34375 39.339844 62.285156 39.476562 C 64.410156 39.546875 67.988281 40.703125 68.902344 42.816406 C 69.242188 43.601562 69.523438 46.679688 69.265625 48.769531 C 68.816406 52.375 68.636719 56.109375 68.746094 59.738281 C 68.980469 67.558594 69.082031 75.398438 68.925781 83.21875 C 68.847656 87.152344 69.09375 91.078125 68.902344 95.007812 C 68.707031 98.96875 69.386719 103.035156 69.058594 106.949219 C 68.96875 108.007812 68.621094 108.742188 68.101562 109.242188 Z M 68.101562 109.242188 " fill-opacity="1" fill-rule="nonzero"/><g clip-path="url(#id2)"><path fill="#00b0ff" d="M 65.332031 110.21875 C 63.984375 111.515625 61.824219 111.269531 60.117188 111.1875 C 57.394531 111.058594 54.679688 110.945312 51.953125 110.910156 C 44.335938 110.8125 36.714844 110.84375 29.09375 110.890625 C 24.484375 110.914062 20.859375 111.355469 16.25 111.261719 C 14.28125 111.21875 11.914062 111.820312 10.195312 111.035156 C 7.308594 109.710938 7.507812 104.082031 7.53125 101.59375 C 7.585938 95.464844 7.234375 89.65625 7.234375 83.492188 C 7.234375 73.875 7.234375 64.253906 7.234375 54.632812 C 7.234375 51.539062 7.023438 48.445312 7.09375 45.347656 C 7.144531 43.082031 7.015625 39.808594 9.625 39.214844 C 13.597656 38.3125 17.765625 38.320312 21.761719 38.613281 C 25.976562 38.921875 29.714844 38.402344 33.9375 38.4375 C 38.609375 38.472656 43.765625 38.699219 48.4375 38.695312 C 52.5 38.695312 55.296875 38.328125 59.351562 38.46875 C 61.539062 38.542969 65.21875 39.730469 66.160156 41.902344 C 66.507812 42.710938 66.796875 45.875 66.53125 48.027344 C 66.070312 51.734375 65.886719 55.574219 65.996094 59.308594 C 66.238281 67.351562 66.339844 75.410156 66.183594 83.457031 C 66.101562 87.5 66.351562 91.539062 66.15625 95.578125 C 65.957031 99.652344 66.65625 103.835938 66.320312 107.859375 C 66.226562 108.949219 65.867188 109.703125 65.332031 110.21875 Z M 65.332031 110.21875 " fill-opacity="1" fill-rule="nonzero"/></g><path fill="#ffffff" d="M 13.007812 46.324219 C 14.496094 44.960938 12.476562 42.871094 10.957031 43.777344 C 8.9375 44.980469 11.410156 47.789062 13.007812 46.324219 Z M 13.007812 46.324219 " fill-opacity="1" fill-rule="nonzero"/><path fill="#373737" d="M 8.015625 44.4375 C 8.558594 44.386719 9.105469 44.339844 9.652344 44.308594 C 10.410156 44.265625 11.550781 43.960938 12.230469 44.527344 C 13.121094 45.28125 12.179688 45.894531 11.578125 46.0625 C 10.882812 46.257812 10.101562 46.261719 9.394531 46.351562 C 8.75 46.433594 4.238281 46.9375 5.167969 44.90625 C 5.609375 43.949219 7.339844 44.5 8.015625 44.4375 Z M 8.015625 44.4375 " fill-opacity="1" fill-rule="nonzero"/><path fill="#ffffff" d="M 13.007812 52.949219 C 14.496094 51.585938 12.476562 49.496094 10.957031 50.402344 C 8.9375 51.605469 11.410156 54.417969 13.007812 52.949219 Z M 13.007812 52.949219 " fill-opacity="1" fill-rule="nonzero"/><path fill="#373737" d="M 8.015625 51.0625 C 8.558594 51.011719 9.105469 50.964844 9.652344 50.933594 C 10.410156 50.890625 11.550781 50.585938 12.230469 51.15625 C 13.121094 51.90625 12.179688 52.519531 11.578125 52.6875 C 10.882812 52.882812 10.101562 52.886719 9.394531 52.976562 C 8.75 53.0625 4.238281 53.566406 5.167969 51.535156 C 5.609375 50.574219 7.339844 51.125 8.015625 51.0625 Z M 8.015625 51.0625 " fill-opacity="1" fill-rule="nonzero"/><path fill="#ffffff" d="M 13.007812 59.574219 C 14.496094 58.210938 12.476562 56.125 10.957031 57.027344 C 8.9375 58.230469 11.410156 61.042969 13.007812 59.574219 Z M 13.007812 59.574219 " fill-opacity="1" fill-rule="nonzero"/><path fill="#373737" d="M 8.015625 57.6875 C 8.558594 57.636719 9.105469 57.59375 9.652344 57.5625 C 10.410156 57.519531 11.550781 57.210938 12.230469 57.78125 C 13.121094 58.53125 12.179688 59.144531 11.578125 59.316406 C 10.882812 59.507812 10.101562 59.511719 9.394531 59.605469 C 8.75 59.6875 4.238281 60.191406 5.167969 58.160156 C 5.609375 57.199219 7.339844 57.75 8.015625 57.6875 Z M 8.015625 57.6875 " fill-opacity="1" fill-rule="nonzero"/><path fill="#ffffff" d="M 13.007812 66.203125 C 14.496094 64.839844 12.476562 62.75 10.957031 63.652344 C 8.9375 64.855469 11.410156 67.667969 13.007812 66.203125 Z M 13.007812 66.203125 " fill-opacity="1" fill-rule="nonzero"/><path fill="#373737" d="M 8.015625 64.3125 C 8.558594 64.261719 9.105469 64.21875 9.652344 64.1875 C 10.410156 64.144531 11.550781 63.839844 12.230469 64.40625 C 13.121094 65.160156 12.179688 65.773438 11.578125 65.941406 C 10.882812 66.132812 10.101562 66.136719 9.394531 66.230469 C 8.75 66.3125 4.238281 66.816406 5.167969 64.785156 C 5.609375 63.828125 7.339844 64.378906 8.015625 64.3125 Z M 8.015625 64.3125 " fill-opacity="1" fill-rule="nonzero"/><path fill="#ffffff" d="M 13.007812 72.828125 C 14.496094 71.464844 12.476562 69.375 10.957031 70.28125 C 8.9375 71.484375 11.410156 74.292969 13.007812 72.828125 Z M 13.007812 72.828125 " fill-opacity="1" fill-rule="nonzero"/><path fill="#373737" d="M 8.015625 70.941406 C 8.558594 70.890625 9.105469 70.84375 9.652344 70.8125 C 10.410156 70.769531 11.550781 70.464844 12.230469 71.03125 C 13.121094 71.785156 12.179688 72.398438 11.578125 72.566406 C 10.882812 72.761719 10.101562 72.765625 9.394531 72.855469 C 8.75 72.941406 4.238281 73.441406 5.167969 71.414062 C 5.609375 70.453125 7.339844 71.003906 8.015625 70.941406 Z M 8.015625 70.941406 " fill-opacity="1" fill-rule="nonzero"/><path fill="#ffffff" d="M 13.007812 79.453125 C 14.496094 78.089844 12.476562 76 10.957031 76.90625 C 8.9375 78.109375 11.410156 80.921875 13.007812 79.453125 Z M 13.007812 79.453125 " fill-opacity="1" fill-rule="nonzero"/><path fill="#373737" d="M 8.015625 77.566406 C 8.558594 77.515625 9.105469 77.46875 9.652344 77.4375 C 10.410156 77.394531 11.550781 77.089844 12.230469 77.660156 C 13.121094 78.410156 12.179688 79.023438 11.578125 79.191406 C 10.882812 79.386719 10.101562 79.390625 9.394531 79.480469 C 8.75 79.566406 4.238281 80.070312 5.167969 78.039062 C 5.609375 77.078125 7.339844 77.628906 8.015625 77.566406 Z M 8.015625 77.566406 " fill-opacity="1" fill-rule="nonzero"/><path fill="#ffffff" d="M 13.007812 86.078125 C 14.496094 84.71875 12.476562 82.628906 10.957031 83.53125 C 8.9375 84.734375 11.410156 87.546875 13.007812 86.078125 Z M 13.007812 86.078125 " fill-opacity="1" fill-rule="nonzero"/><path fill="#373737" d="M 8.015625 84.191406 C 8.558594 84.140625 9.105469 84.097656 9.652344 84.066406 C 10.410156 84.023438 11.550781 83.714844 12.230469 84.285156 C 13.121094 85.039062 12.179688 85.648438 11.578125 85.820312 C 10.882812 86.011719 10.101562 86.015625 9.394531 86.109375 C 8.75 86.191406 4.238281 86.695312 5.167969 84.664062 C 5.609375 83.703125 7.339844 84.253906 8.015625 84.191406 Z M 8.015625 84.191406 " fill-opacity="1" fill-rule="nonzero"/><path fill="#ffffff" d="M 13.007812 92.707031 C 14.496094 91.34375 12.476562 89.253906 10.957031 90.160156 C 8.9375 91.359375 11.410156 94.171875 13.007812 92.707031 Z M 13.007812 92.707031 " fill-opacity="1" fill-rule="nonzero"/><path fill="#373737" d="M 8.015625 90.820312 C 8.558594 90.765625 9.105469 90.722656 9.652344 90.691406 C 10.410156 90.648438 11.550781 90.34375 12.230469 90.910156 C 13.121094 91.664062 12.179688 92.277344 11.578125 92.445312 C 10.882812 92.636719 10.101562 92.640625 9.394531 92.734375 C 8.75 92.816406 4.238281 93.320312 5.167969 91.289062 C 5.609375 90.332031 7.339844 90.882812 8.015625 90.820312 Z M 8.015625 90.820312 " fill-opacity="1" fill-rule="nonzero"/><path fill="#ffffff" d="M 13.007812 99.332031 C 14.496094 97.96875 12.476562 95.878906 10.957031 96.785156 C 8.9375 97.988281 11.410156 100.796875 13.007812 99.332031 Z M 13.007812 99.332031 " fill-opacity="1" fill-rule="nonzero"/><path fill="#373737" d="M 8.015625 97.445312 C 8.558594 97.394531 9.105469 97.347656 9.652344 97.316406 C 10.410156 97.273438 11.550781 96.96875 12.230469 97.539062 C 13.121094 98.289062 12.179688 98.902344 11.578125 99.070312 C 10.882812 99.265625 10.101562 99.269531 9.394531 99.359375 C 8.75 99.445312 4.238281 99.949219 5.167969 97.917969 C 5.609375 96.957031 7.339844 97.507812 8.015625 97.445312 Z M 8.015625 97.445312 " fill-opacity="1" fill-rule="nonzero"/><path fill="#ffffff" d="M 13.007812 105.957031 C 14.496094 104.59375 12.476562 102.503906 10.957031 103.410156 C 8.9375 104.613281 11.410156 107.425781 13.007812 105.957031 Z M 13.007812 105.957031 " fill-opacity="1" fill-rule="nonzero"/><path fill="#373737" d="M 8.015625 104.070312 C 8.558594 104.019531 9.105469 103.972656 9.652344 103.941406 C 10.410156 103.898438 11.550781 103.59375 12.230469 104.164062 C 13.121094 104.914062 12.179688 105.527344 11.578125 105.695312 C 10.882812 105.890625 10.101562 105.894531 9.394531 105.988281 C 8.75 106.070312 4.238281 106.574219 5.167969 104.542969 C 5.609375 103.582031 7.339844 104.132812 8.015625 104.070312 Z M 8.015625 104.070312 " fill-opacity="1" fill-rule="nonzero"/><g fill="#373737" fill-opacity="1"><g transform="translate(75.530945, 97.612)"><g><path d="M 7.515625 -34.207031 C 10.4375 -34.207031 12.652344 -36.476562 12.652344 -39.171875 C 12.652344 -41.867188 10.4375 -44.105469 7.515625 -44.105469 C 4.625 -44.105469 2.382812 -41.867188 2.382812 -39.171875 C 2.382812 -36.476562 4.625 -34.207031 7.515625 -34.207031 Z M 2.496094 0 L 12.539062 0 L 12.539062 -30.890625 L 2.496094 -30.890625 Z M 2.496094 0 "/></g></g></g><g fill="#373737" fill-opacity="1"><g transform="translate(90.56431, 97.612)"><g><path d="M 3.089844 0 L 13.5 0 L 13.5 -14.097656 L 18.804688 -14.097656 L 25.839844 0 L 37.527344 0 L 29.328125 -15.65625 C 33.582031 -17.5 36.308594 -22.039062 36.308594 -27.285156 L 36.308594 -27.34375 C 36.308594 -36.023438 30.71875 -40.929688 20.820312 -40.929688 L 3.089844 -40.929688 Z M 13.5 -21.640625 L 13.5 -33.074219 L 19.601562 -33.074219 C 23.257812 -33.074219 25.699219 -30.804688 25.699219 -27.371094 L 25.699219 -27.316406 C 25.699219 -23.855469 23.34375 -21.640625 19.65625 -21.640625 Z M 13.5 -21.640625 "/></g></g></g><g fill="#373737" fill-opacity="1"><g transform="translate(128.998675, 97.612)"><g><path d="M 17.160156 0.652344 C 27.003906 0.652344 30.890625 -5.132812 31.824219 -9.417969 L 31.910156 -9.757812 L 22.832031 -9.757812 L 22.804688 -9.617188 C 22.351562 -8.339844 20.59375 -6.496094 17.359375 -6.496094 C 13.699219 -6.496094 11.429688 -8.964844 11.316406 -13.132812 L 32.082031 -13.132812 L 32.082031 -16.082031 C 32.082031 -25.441406 26.152344 -31.542969 16.820312 -31.542969 C 7.429688 -31.542969 1.476562 -25.386719 1.476562 -15.457031 L 1.476562 -15.429688 C 1.476562 -5.445312 7.402344 0.652344 17.160156 0.652344 Z M 17.046875 -24.394531 C 19.996094 -24.394531 22.097656 -22.523438 22.605469 -19.0625 L 11.460938 -19.0625 C 11.96875 -22.464844 14.097656 -24.394531 17.046875 -24.394531 Z M 17.046875 -24.394531 "/></g></g></g><g fill="#373737" fill-opacity="1"><g transform="translate(162.554281, 97.612)"><g><path d="M 10.269531 0 L 21.898438 0 L 32.136719 -30.890625 L 21.613281 -30.890625 L 16.339844 -8.425781 L 16.140625 -8.425781 L 10.75 -30.890625 L -0.0585938 -30.890625 Z M 10.269531 0 "/></g></g></g><g fill="#373737" fill-opacity="1"><g transform="translate(194.606559, 97.612)"><g><path d="M 7.515625 -34.207031 C 10.4375 -34.207031 12.652344 -36.476562 12.652344 -39.171875 C 12.652344 -41.867188 10.4375 -44.105469 7.515625 -44.105469 C 4.625 -44.105469 2.382812 -41.867188 2.382812 -39.171875 C 2.382812 -36.476562 4.625 -34.207031 7.515625 -34.207031 Z M 2.496094 0 L 12.539062 0 L 12.539062 -30.890625 L 2.496094 -30.890625 Z M 2.496094 0 "/></g></g></g><g fill="#373737" fill-opacity="1"><g transform="translate(209.639921, 97.612)"><g><path d="M 17.160156 0.652344 C 27.003906 0.652344 30.890625 -5.132812 31.824219 -9.417969 L 31.910156 -9.757812 L 22.832031 -9.757812 L 22.804688 -9.617188 C 22.351562 -8.339844 20.59375 -6.496094 17.359375 -6.496094 C 13.699219 -6.496094 11.429688 -8.964844 11.316406 -13.132812 L 32.082031 -13.132812 L 32.082031 -16.082031 C 32.082031 -25.441406 26.152344 -31.542969 16.820312 -31.542969 C 7.429688 -31.542969 1.476562 -25.386719 1.476562 -15.457031 L 1.476562 -15.429688 C 1.476562 -5.445312 7.402344 0.652344 17.160156 0.652344 Z M 17.046875 -24.394531 C 19.996094 -24.394531 22.097656 -22.523438 22.605469 -19.0625 L 11.460938 -19.0625 C 11.96875 -22.464844 14.097656 -24.394531 17.046875 -24.394531 Z M 17.046875 -24.394531 "/></g></g></g><g fill="#373737" fill-opacity="1"><g transform="translate(243.195527, 97.612)"><g><path d="M 8.394531 0 L 19.0625 0 L 23.882812 -20.792969 L 24.082031 -20.792969 L 28.988281 0 L 39.824219 0 L 47.792969 -30.890625 L 37.867188 -30.890625 L 33.953125 -9.078125 L 33.753906 -9.078125 L 28.988281 -30.890625 L 19.375 -30.890625 L 14.664062 -9.078125 L 14.464844 -9.078125 L 10.523438 -30.890625 L 0.367188 -30.890625 Z M 8.394531 0 "/></g></g></g><g fill="#373737" fill-opacity="1"><g transform="translate(291.387387, 97.612)"><g><path d="M 17.160156 0.652344 C 27.003906 0.652344 30.890625 -5.132812 31.824219 -9.417969 L 31.910156 -9.757812 L 22.832031 -9.757812 L 22.804688 -9.617188 C 22.351562 -8.339844 20.59375 -6.496094 17.359375 -6.496094 C 13.699219 -6.496094 11.429688 -8.964844 11.316406 -13.132812 L 32.082031 -13.132812 L 32.082031 -16.082031 C 32.082031 -25.441406 26.152344 -31.542969 16.820312 -31.542969 C 7.429688 -31.542969 1.476562 -25.386719 1.476562 -15.457031 L 1.476562 -15.429688 C 1.476562 -5.445312 7.402344 0.652344 17.160156 0.652344 Z M 17.046875 -24.394531 C 19.996094 -24.394531 22.097656 -22.523438 22.605469 -19.0625 L 11.460938 -19.0625 C 11.96875 -22.464844 14.097656 -24.394531 17.046875 -24.394531 Z M 17.046875 -24.394531 "/></g></g></g><g fill="#373737" fill-opacity="1"><g transform="translate(324.942993, 97.612)"><g><path d="M 2.410156 0 L 12.480469 0 L 12.480469 -16.394531 C 12.480469 -20.792969 14.777344 -23.117188 19.003906 -23.117188 C 20.195312 -23.117188 21.359375 -22.890625 22.210938 -22.550781 L 22.210938 -31.144531 C 21.445312 -31.398438 20.566406 -31.542969 19.601562 -31.542969 C 15.96875 -31.542969 13.53125 -29.328125 12.679688 -25.414062 L 12.480469 -25.414062 L 12.480469 -30.890625 L 2.410156 -30.890625 Z M 2.410156 0 "/></g></g></g></svg>